<mxfile host="65bd71144e" scale="0.5" border="10">
    <diagram name="Shopping Overall" id="qQUbtWGfuRFJtNIZ7tMG">
        <mxGraphModel dx="1479" dy="419" grid="1" gridSize="10" guides="1" tooltips="1" connect="1" arrows="1" fold="1" page="0" pageScale="1" pageWidth="850" pageHeight="1100" background="#ffffff" math="0" shadow="0">
            <root>
                <mxCell id="Q2AAnY5rfOb8YR8JPcrD-0"/>
                <mxCell id="Q2AAnY5rfOb8YR8JPcrD-1" parent="Q2AAnY5rfOb8YR8JPcrD-0"/>
                <mxCell id="2" value="&lt;font style=&quot;font-size: 28px&quot;&gt;&lt;b&gt;Shopping&lt;/b&gt;&lt;/font&gt;" style="shape=umlFrame;whiteSpace=wrap;html=1;width=160;height=60;" parent="Q2AAnY5rfOb8YR8JPcrD-1" vertex="1">
                    <mxGeometry x="-900" y="220" width="720" height="640" as="geometry"/>
                </mxCell>
                <mxCell id="Q2AAnY5rfOb8YR8JPcrD-49" value="&lt;font style=&quot;font-size: 18px&quot;&gt;«Boundary»&lt;/font&gt;&lt;br&gt;&lt;font style=&quot;font-size: 24px&quot;&gt;Views&lt;/font&gt;" style="html=1;" parent="Q2AAnY5rfOb8YR8JPcrD-1" vertex="1">
                    <mxGeometry x="-640" y="280" width="200" height="120" as="geometry"/>
                </mxCell>
                <mxCell id="Q2AAnY5rfOb8YR8JPcrD-50" value="&#10;Product" style="shape=module;align=left;spacingLeft=20;align=center;verticalAlign=top;fontSize=24;" parent="Q2AAnY5rfOb8YR8JPcrD-1" vertex="1">
                    <mxGeometry x="-640" y="480" width="200" height="120" as="geometry"/>
                </mxCell>
                <mxCell id="Q2AAnY5rfOb8YR8JPcrD-51" value="&#10;Data" style="shape=module;align=left;spacingLeft=20;align=center;verticalAlign=top;fontSize=24;" parent="Q2AAnY5rfOb8YR8JPcrD-1" vertex="1">
                    <mxGeometry x="-840" y="680" width="200" height="120" as="geometry"/>
                </mxCell>
                <mxCell id="Q2AAnY5rfOb8YR8JPcrD-53" value="Use" style="endArrow=open;endSize=12;dashed=1;html=1;fontSize=18;exitX=0.5;exitY=1;exitDx=0;exitDy=0;entryX=0.5;entryY=0;entryDx=0;entryDy=0;" parent="Q2AAnY5rfOb8YR8JPcrD-1" source="Q2AAnY5rfOb8YR8JPcrD-49" target="Q2AAnY5rfOb8YR8JPcrD-50" edge="1">
                    <mxGeometry width="160" relative="1" as="geometry">
                        <mxPoint x="-650" y="670" as="sourcePoint"/>
                        <mxPoint x="-490" y="670" as="targetPoint"/>
                    </mxGeometry>
                </mxCell>
                <mxCell id="Q2AAnY5rfOb8YR8JPcrD-54" value="Use" style="endArrow=open;endSize=12;dashed=1;html=1;fontSize=18;exitX=0.5;exitY=1;exitDx=0;exitDy=0;entryX=0.5;entryY=0;entryDx=0;entryDy=0;" parent="Q2AAnY5rfOb8YR8JPcrD-1" source="Q2AAnY5rfOb8YR8JPcrD-50" target="Q2AAnY5rfOb8YR8JPcrD-51" edge="1">
                    <mxGeometry width="160" relative="1" as="geometry">
                        <mxPoint x="-650" y="670" as="sourcePoint"/>
                        <mxPoint x="-490" y="670" as="targetPoint"/>
                    </mxGeometry>
                </mxCell>
                <mxCell id="Q2AAnY5rfOb8YR8JPcrD-55" value="Use" style="endArrow=open;endSize=12;dashed=1;html=1;fontSize=18;entryX=0.5;entryY=0;entryDx=0;entryDy=0;exitX=0.5;exitY=1;exitDx=0;exitDy=0;" parent="Q2AAnY5rfOb8YR8JPcrD-1" source="Q2AAnY5rfOb8YR8JPcrD-50" target="HkUTSzICaUoDz4DbWp7S-0" edge="1">
                    <mxGeometry width="160" relative="1" as="geometry">
                        <mxPoint x="-650" y="670" as="sourcePoint"/>
                        <mxPoint x="-260" y="680" as="targetPoint"/>
                    </mxGeometry>
                </mxCell>
                <mxCell id="HkUTSzICaUoDz4DbWp7S-0" value="&#10;Tasks" style="shape=module;align=left;spacingLeft=20;align=center;verticalAlign=top;fontSize=24;" parent="Q2AAnY5rfOb8YR8JPcrD-1" vertex="1">
                    <mxGeometry x="-440" y="680" width="200" height="120" as="geometry"/>
                </mxCell>
                <mxCell id="HkUTSzICaUoDz4DbWp7S-2" value="Use" style="endArrow=open;endSize=12;dashed=1;html=1;entryX=1;entryY=0.5;entryDx=0;entryDy=0;exitX=0;exitY=0.5;exitDx=10;exitDy=0;fontSize=18;exitPerimeter=0;" parent="Q2AAnY5rfOb8YR8JPcrD-1" source="HkUTSzICaUoDz4DbWp7S-0" target="Q2AAnY5rfOb8YR8JPcrD-51" edge="1">
                    <mxGeometry width="160" relative="1" as="geometry">
                        <mxPoint x="-420" y="610" as="sourcePoint"/>
                        <mxPoint x="-260" y="610" as="targetPoint"/>
                    </mxGeometry>
                </mxCell>
                <mxCell id="HkUTSzICaUoDz4DbWp7S-3" value="Call" style="endArrow=open;endSize=12;dashed=1;html=1;entryX=0;entryY=0.5;entryDx=0;entryDy=0;fontSize=18;exitX=1.003;exitY=0.503;exitDx=0;exitDy=0;exitPerimeter=0;" parent="Q2AAnY5rfOb8YR8JPcrD-1" source="2" target="0" edge="1">
                    <mxGeometry width="160" relative="1" as="geometry">
                        <mxPoint x="-130" y="550" as="sourcePoint"/>
                        <mxPoint x="-300" y="610" as="targetPoint"/>
                    </mxGeometry>
                </mxCell>
                <mxCell id="0" value="&lt;p style=&quot;margin: 0px ; margin-top: 6px ; text-align: center&quot;&gt;&lt;b&gt;&lt;font style=&quot;font-size: 28px&quot;&gt;Scraper&lt;/font&gt;&lt;/b&gt;&lt;/p&gt;&lt;hr style=&quot;font-size: 20px&quot;&gt;&lt;p style=&quot;margin: 0px 0px 0px 8px ; font-size: 20px&quot;&gt;&lt;br&gt;&lt;/p&gt;&lt;p style=&quot;text-align: center ; margin: 0px 0px 0px 8px&quot;&gt;&lt;font style=&quot;font-size: 24px&quot;&gt;Worker&lt;/font&gt;&lt;/p&gt;" style="align=left;overflow=fill;html=1;dropTarget=0;" parent="Q2AAnY5rfOb8YR8JPcrD-1" vertex="1">
                    <mxGeometry x="-60" y="470" width="160" height="140" as="geometry"/>
                </mxCell>
                <mxCell id="1" value="" style="shape=component;jettyWidth=8;jettyHeight=4;" parent="0" vertex="1">
                    <mxGeometry x="1" width="20" height="20" relative="1" as="geometry">
                        <mxPoint x="-24" y="4" as="offset"/>
                    </mxGeometry>
                </mxCell>
                <mxCell id="3" value="&lt;p style=&quot;margin: 0px ; margin-top: 6px ; text-align: center&quot;&gt;&lt;b&gt;&lt;font style=&quot;font-size: 28px&quot;&gt;Account&lt;/font&gt;&lt;/b&gt;&lt;/p&gt;&lt;hr style=&quot;font-size: 20px&quot;&gt;&lt;p style=&quot;margin: 0px 0px 0px 8px ; font-size: 20px&quot;&gt;&lt;font style=&quot;font-size: 20px&quot;&gt;&lt;br&gt;&lt;/font&gt;&lt;/p&gt;&lt;p style=&quot;text-align: center ; margin: 0px 0px 0px 8px&quot;&gt;&lt;font style=&quot;font-size: 24px&quot;&gt;Authen&lt;/font&gt;&lt;/p&gt;" style="align=left;overflow=fill;html=1;dropTarget=0;" parent="Q2AAnY5rfOb8YR8JPcrD-1" vertex="1">
                    <mxGeometry x="-1180" y="470" width="160" height="140" as="geometry"/>
                </mxCell>
                <mxCell id="4" value="" style="shape=component;jettyWidth=8;jettyHeight=4;" parent="3" vertex="1">
                    <mxGeometry x="1" width="20" height="20" relative="1" as="geometry">
                        <mxPoint x="-24" y="4" as="offset"/>
                    </mxGeometry>
                </mxCell>
                <mxCell id="5" value="Redirect" style="endArrow=open;endSize=12;dashed=1;html=1;fontSize=18;entryX=1;entryY=0.5;entryDx=0;entryDy=0;startArrow=open;startFill=0;startSize=12;exitX=-0.003;exitY=0.503;exitDx=0;exitDy=0;exitPerimeter=0;" parent="Q2AAnY5rfOb8YR8JPcrD-1" source="2" target="3" edge="1">
                    <mxGeometry width="160" relative="1" as="geometry">
                        <mxPoint x="-920" y="540" as="sourcePoint"/>
                        <mxPoint x="-570" y="550" as="targetPoint"/>
                    </mxGeometry>
                </mxCell>
            </root>
        </mxGraphModel>
    </diagram>
    <diagram id="Vtf_wk2o9guB4VwVEuIB" name="Class Shopper">
        <mxGraphModel dx="1328" dy="1519" grid="1" gridSize="10" guides="1" tooltips="1" connect="1" arrows="1" fold="1" page="1" pageScale="1" pageWidth="850" pageHeight="1100" math="0" shadow="0">
            <root>
                <mxCell id="2WWhBWjn9xyKDI1QBTpN-0"/>
                <mxCell id="2WWhBWjn9xyKDI1QBTpN-1" parent="2WWhBWjn9xyKDI1QBTpN-0"/>
                <mxCell id="_gKKV9M7iTrNDETlGls4-65" value="pkg" style="shape=umlFrame;whiteSpace=wrap;html=1;fontSize=18;strokeWidth=1;" parent="2WWhBWjn9xyKDI1QBTpN-1" vertex="1">
                    <mxGeometry x="-220" y="-140" width="1400" height="900" as="geometry"/>
                </mxCell>
                <mxCell id="_gKKV9M7iTrNDETlGls4-77" value="AutoAdapter" style="swimlane;fontStyle=1;align=center;verticalAlign=top;childLayout=stackLayout;horizontal=1;startSize=26;horizontalStack=0;resizeParent=1;resizeParentMax=0;resizeLast=0;collapsible=1;marginBottom=0;fontSize=18;strokeWidth=1;" parent="2WWhBWjn9xyKDI1QBTpN-1" vertex="1">
                    <mxGeometry x="758" y="120" width="240" height="112" as="geometry"/>
                </mxCell>
                <mxCell id="_gKKV9M7iTrNDETlGls4-78" value="- timeout: int" style="text;strokeColor=none;fillColor=none;align=left;verticalAlign=top;spacingLeft=4;spacingRight=4;overflow=hidden;rotatable=0;points=[[0,0.5],[1,0.5]];portConstraint=eastwest;fontSize=18;" parent="_gKKV9M7iTrNDETlGls4-77" vertex="1">
                    <mxGeometry y="26" width="240" height="26" as="geometry"/>
                </mxCell>
                <mxCell id="_gKKV9M7iTrNDETlGls4-79" value="- retry: Retry" style="text;strokeColor=none;fillColor=none;align=left;verticalAlign=top;spacingLeft=4;spacingRight=4;overflow=hidden;rotatable=0;points=[[0,0.5],[1,0.5]];portConstraint=eastwest;fontSize=18;" parent="_gKKV9M7iTrNDETlGls4-77" vertex="1">
                    <mxGeometry y="52" width="240" height="26" as="geometry"/>
                </mxCell>
                <mxCell id="_gKKV9M7iTrNDETlGls4-83" value="" style="line;strokeWidth=1;fillColor=none;align=left;verticalAlign=middle;spacingTop=-1;spacingLeft=3;spacingRight=3;rotatable=0;labelPosition=right;points=[];portConstraint=eastwest;fontSize=18;" parent="_gKKV9M7iTrNDETlGls4-77" vertex="1">
                    <mxGeometry y="78" width="240" height="8" as="geometry"/>
                </mxCell>
                <mxCell id="_gKKV9M7iTrNDETlGls4-86" value="+ send(): Response" style="text;strokeColor=none;fillColor=none;align=left;verticalAlign=top;spacingLeft=4;spacingRight=4;overflow=hidden;rotatable=0;points=[[0,0.5],[1,0.5]];portConstraint=eastwest;fontSize=18;" parent="_gKKV9M7iTrNDETlGls4-77" vertex="1">
                    <mxGeometry y="86" width="240" height="26" as="geometry"/>
                </mxCell>
                <mxCell id="_gKKV9M7iTrNDETlGls4-87" value="&lt;&lt;Interface&gt;&gt; ShopperDataInterface" style="swimlane;fontStyle=1;childLayout=stackLayout;horizontal=1;startSize=26;fillColor=none;horizontalStack=0;resizeParent=1;resizeParentMax=0;resizeLast=0;collapsible=1;marginBottom=0;fontSize=18;strokeWidth=1;" parent="2WWhBWjn9xyKDI1QBTpN-1" vertex="1">
                    <mxGeometry x="-160" y="285" width="360" height="208" as="geometry"/>
                </mxCell>
                <mxCell id="_gKKV9M7iTrNDETlGls4-88" value="+ list_all_products(int): list" style="text;strokeColor=none;fillColor=none;align=left;verticalAlign=top;spacingLeft=4;spacingRight=4;overflow=hidden;rotatable=0;points=[[0,0.5],[1,0.5]];portConstraint=eastwest;fontSize=18;" parent="_gKKV9M7iTrNDETlGls4-87" vertex="1">
                    <mxGeometry y="26" width="360" height="26" as="geometry"/>
                </mxCell>
                <mxCell id="E_wjDgqch29v95h_GeEQ-11" value="+ list_all_track_products(int): list" style="text;strokeColor=none;fillColor=none;align=left;verticalAlign=top;spacingLeft=4;spacingRight=4;overflow=hidden;rotatable=0;points=[[0,0.5],[1,0.5]];portConstraint=eastwest;fontSize=18;" parent="_gKKV9M7iTrNDETlGls4-87" vertex="1">
                    <mxGeometry y="52" width="360" height="26" as="geometry"/>
                </mxCell>
                <mxCell id="E_wjDgqch29v95h_GeEQ-12" value="+ update_product(int,str,str,int): bool" style="text;strokeColor=none;fillColor=none;align=left;verticalAlign=top;spacingLeft=4;spacingRight=4;overflow=hidden;rotatable=0;points=[[0,0.5],[1,0.5]];portConstraint=eastwest;fontSize=18;" parent="_gKKV9M7iTrNDETlGls4-87" vertex="1">
                    <mxGeometry y="78" width="360" height="26" as="geometry"/>
                </mxCell>
                <mxCell id="E_wjDgqch29v95h_GeEQ-13" value="+ add_product(int,str,str,str): bool" style="text;strokeColor=none;fillColor=none;align=left;verticalAlign=top;spacingLeft=4;spacingRight=4;overflow=hidden;rotatable=0;points=[[0,0.5],[1,0.5]];portConstraint=eastwest;fontSize=18;" parent="_gKKV9M7iTrNDETlGls4-87" vertex="1">
                    <mxGeometry y="104" width="360" height="26" as="geometry"/>
                </mxCell>
                <mxCell id="E_wjDgqch29v95h_GeEQ-14" value="+ delete_all_inventory(int): bool" style="text;strokeColor=none;fillColor=none;align=left;verticalAlign=top;spacingLeft=4;spacingRight=4;overflow=hidden;rotatable=0;points=[[0,0.5],[1,0.5]];portConstraint=eastwest;fontSize=18;" parent="_gKKV9M7iTrNDETlGls4-87" vertex="1">
                    <mxGeometry y="130" width="360" height="26" as="geometry"/>
                </mxCell>
                <mxCell id="E_wjDgqch29v95h_GeEQ-15" value="+ add_quantity(list): bool" style="text;strokeColor=none;fillColor=none;align=left;verticalAlign=top;spacingLeft=4;spacingRight=4;overflow=hidden;rotatable=0;points=[[0,0.5],[1,0.5]];portConstraint=eastwest;fontSize=18;" parent="_gKKV9M7iTrNDETlGls4-87" vertex="1">
                    <mxGeometry y="156" width="360" height="26" as="geometry"/>
                </mxCell>
                <mxCell id="E_wjDgqch29v95h_GeEQ-16" value="+ list_all_inventory(int): list" style="text;strokeColor=none;fillColor=none;align=left;verticalAlign=top;spacingLeft=4;spacingRight=4;overflow=hidden;rotatable=0;points=[[0,0.5],[1,0.5]];portConstraint=eastwest;fontSize=18;" parent="_gKKV9M7iTrNDETlGls4-87" vertex="1">
                    <mxGeometry y="182" width="360" height="26" as="geometry"/>
                </mxCell>
                <mxCell id="_gKKV9M7iTrNDETlGls4-93" value="ShopperMySQLInterface" style="swimlane;fontStyle=1;childLayout=stackLayout;horizontal=1;startSize=26;fillColor=none;horizontalStack=0;resizeParent=1;resizeParentMax=0;resizeLast=0;collapsible=1;marginBottom=0;fontSize=18;strokeWidth=1;" parent="2WWhBWjn9xyKDI1QBTpN-1" vertex="1">
                    <mxGeometry x="-120" y="577" width="280" height="52" as="geometry"/>
                </mxCell>
                <mxCell id="_gKKV9M7iTrNDETlGls4-94" value="" style="endArrow=block;dashed=1;endFill=0;endSize=12;html=1;fontSize=18;strokeWidth=2;exitX=0.5;exitY=0;exitDx=0;exitDy=0;entryX=0.5;entryY=1;entryDx=0;entryDy=0;" parent="2WWhBWjn9xyKDI1QBTpN-1" source="_gKKV9M7iTrNDETlGls4-93" target="_gKKV9M7iTrNDETlGls4-87" edge="1">
                    <mxGeometry width="160" relative="1" as="geometry">
                        <mxPoint x="360" y="820" as="sourcePoint"/>
                        <mxPoint x="450" y="790" as="targetPoint"/>
                    </mxGeometry>
                </mxCell>
                <mxCell id="_gKKV9M7iTrNDETlGls4-97" value="Shopper" style="text;align=center;fontStyle=1;verticalAlign=middle;spacingLeft=3;spacingRight=3;strokeColor=none;rotatable=0;points=[[0,0.5],[1,0.5]];portConstraint=eastwest;fontSize=48;" parent="2WWhBWjn9xyKDI1QBTpN-1" vertex="1">
                    <mxGeometry x="440" y="-80" width="80" height="26" as="geometry"/>
                </mxCell>
                <mxCell id="_gKKV9M7iTrNDETlGls4-98" value="&lt;&lt;Boundary&gt;&gt; UI" style="swimlane;fontStyle=1;childLayout=stackLayout;horizontal=1;startSize=26;fillColor=none;horizontalStack=0;resizeParent=1;resizeParentMax=0;resizeLast=0;collapsible=1;marginBottom=0;fontSize=18;strokeWidth=1;" parent="2WWhBWjn9xyKDI1QBTpN-1" vertex="1">
                    <mxGeometry x="280" y="10" width="400" height="156" as="geometry"/>
                </mxCell>
                <mxCell id="_gKKV9M7iTrNDETlGls4-99" value="+ list_all_products(): JsonResponse" style="text;strokeColor=none;fillColor=none;align=left;verticalAlign=top;spacingLeft=4;spacingRight=4;overflow=hidden;rotatable=0;points=[[0,0.5],[1,0.5]];portConstraint=eastwest;fontSize=18;" parent="_gKKV9M7iTrNDETlGls4-98" vertex="1">
                    <mxGeometry y="26" width="400" height="26" as="geometry"/>
                </mxCell>
                <mxCell id="_gKKV9M7iTrNDETlGls4-100" value="+ update_product(): JsonResponse" style="text;strokeColor=none;fillColor=none;align=left;verticalAlign=top;spacingLeft=4;spacingRight=4;overflow=hidden;rotatable=0;points=[[0,0.5],[1,0.5]];portConstraint=eastwest;fontSize=18;" parent="_gKKV9M7iTrNDETlGls4-98" vertex="1">
                    <mxGeometry y="52" width="400" height="26" as="geometry"/>
                </mxCell>
                <mxCell id="_gKKV9M7iTrNDETlGls4-101" value="+ search_product(): JsonResponse" style="text;strokeColor=none;fillColor=none;align=left;verticalAlign=top;spacingLeft=4;spacingRight=4;overflow=hidden;rotatable=0;points=[[0,0.5],[1,0.5]];portConstraint=eastwest;fontSize=18;" parent="_gKKV9M7iTrNDETlGls4-98" vertex="1">
                    <mxGeometry y="78" width="400" height="26" as="geometry"/>
                </mxCell>
                <mxCell id="E_wjDgqch29v95h_GeEQ-0" value="+ add_product(): JsonResponse" style="text;strokeColor=none;fillColor=none;align=left;verticalAlign=top;spacingLeft=4;spacingRight=4;overflow=hidden;rotatable=0;points=[[0,0.5],[1,0.5]];portConstraint=eastwest;fontSize=18;" parent="_gKKV9M7iTrNDETlGls4-98" vertex="1">
                    <mxGeometry y="104" width="400" height="26" as="geometry"/>
                </mxCell>
                <mxCell id="E_wjDgqch29v95h_GeEQ-1" value="+ list_all_inventory(): JsonResponse" style="text;strokeColor=none;fillColor=none;align=left;verticalAlign=top;spacingLeft=4;spacingRight=4;overflow=hidden;rotatable=0;points=[[0,0.5],[1,0.5]];portConstraint=eastwest;fontSize=18;" parent="_gKKV9M7iTrNDETlGls4-98" vertex="1">
                    <mxGeometry y="130" width="400" height="26" as="geometry"/>
                </mxCell>
                <mxCell id="_gKKV9M7iTrNDETlGls4-103" value="Use" style="endArrow=open;endSize=12;dashed=1;html=1;fontSize=20;strokeWidth=2;entryX=0.5;entryY=0;entryDx=0;entryDy=0;exitX=0.5;exitY=1;exitDx=0;exitDy=0;" parent="2WWhBWjn9xyKDI1QBTpN-1" source="_gKKV9M7iTrNDETlGls4-98" target="E_wjDgqch29v95h_GeEQ-2" edge="1">
                    <mxGeometry width="160" relative="1" as="geometry">
                        <mxPoint x="670" y="170" as="sourcePoint"/>
                        <mxPoint x="830" y="170" as="targetPoint"/>
                    </mxGeometry>
                </mxCell>
                <mxCell id="E_wjDgqch29v95h_GeEQ-2" value="Shopper" style="swimlane;fontStyle=1;childLayout=stackLayout;horizontal=1;startSize=26;fillColor=none;horizontalStack=0;resizeParent=1;resizeParentMax=0;resizeLast=0;collapsible=1;marginBottom=0;fontSize=18;strokeWidth=1;" parent="2WWhBWjn9xyKDI1QBTpN-1" vertex="1">
                    <mxGeometry x="320" y="285" width="320" height="208" as="geometry"/>
                </mxCell>
                <mxCell id="E_wjDgqch29v95h_GeEQ-3" value="+ list_all_products(int,int): list" style="text;strokeColor=none;fillColor=none;align=left;verticalAlign=top;spacingLeft=4;spacingRight=4;overflow=hidden;rotatable=0;points=[[0,0.5],[1,0.5]];portConstraint=eastwest;fontSize=18;" parent="E_wjDgqch29v95h_GeEQ-2" vertex="1">
                    <mxGeometry y="26" width="320" height="26" as="geometry"/>
                </mxCell>
                <mxCell id="E_wjDgqch29v95h_GeEQ-4" value="+ update_product(int,str,str,int): bool" style="text;strokeColor=none;fillColor=none;align=left;verticalAlign=top;spacingLeft=4;spacingRight=4;overflow=hidden;rotatable=0;points=[[0,0.5],[1,0.5]];portConstraint=eastwest;fontSize=18;" parent="E_wjDgqch29v95h_GeEQ-2" vertex="1">
                    <mxGeometry y="52" width="320" height="26" as="geometry"/>
                </mxCell>
                <mxCell id="E_wjDgqch29v95h_GeEQ-5" value="+ search_product(str,str): dict" style="text;strokeColor=none;fillColor=none;align=left;verticalAlign=top;spacingLeft=4;spacingRight=4;overflow=hidden;rotatable=0;points=[[0,0.5],[1,0.5]];portConstraint=eastwest;fontSize=18;" parent="E_wjDgqch29v95h_GeEQ-2" vertex="1">
                    <mxGeometry y="78" width="320" height="26" as="geometry"/>
                </mxCell>
                <mxCell id="E_wjDgqch29v95h_GeEQ-6" value="+ add_product(int,str,str,str): bool" style="text;strokeColor=none;fillColor=none;align=left;verticalAlign=top;spacingLeft=4;spacingRight=4;overflow=hidden;rotatable=0;points=[[0,0.5],[1,0.5]];portConstraint=eastwest;fontSize=18;" parent="E_wjDgqch29v95h_GeEQ-2" vertex="1">
                    <mxGeometry y="104" width="320" height="26" as="geometry"/>
                </mxCell>
                <mxCell id="E_wjDgqch29v95h_GeEQ-7" value="- delete_all_inventory(int): None" style="text;strokeColor=none;fillColor=none;align=left;verticalAlign=top;spacingLeft=4;spacingRight=4;overflow=hidden;rotatable=0;points=[[0,0.5],[1,0.5]];portConstraint=eastwest;fontSize=18;" parent="E_wjDgqch29v95h_GeEQ-2" vertex="1">
                    <mxGeometry y="130" width="320" height="26" as="geometry"/>
                </mxCell>
                <mxCell id="E_wjDgqch29v95h_GeEQ-8" value="- get_quantity(int,str): None" style="text;strokeColor=none;fillColor=none;align=left;verticalAlign=top;spacingLeft=4;spacingRight=4;overflow=hidden;rotatable=0;points=[[0,0.5],[1,0.5]];portConstraint=eastwest;fontSize=18;" parent="E_wjDgqch29v95h_GeEQ-2" vertex="1">
                    <mxGeometry y="156" width="320" height="26" as="geometry"/>
                </mxCell>
                <mxCell id="E_wjDgqch29v95h_GeEQ-9" value="+ list_all_inventory(int,str): list" style="text;strokeColor=none;fillColor=none;align=left;verticalAlign=top;spacingLeft=4;spacingRight=4;overflow=hidden;rotatable=0;points=[[0,0.5],[1,0.5]];portConstraint=eastwest;fontSize=18;" parent="E_wjDgqch29v95h_GeEQ-2" vertex="1">
                    <mxGeometry y="182" width="320" height="26" as="geometry"/>
                </mxCell>
                <mxCell id="E_wjDgqch29v95h_GeEQ-17" value="ScraperBase" style="swimlane;fontStyle=1;align=center;verticalAlign=top;childLayout=stackLayout;horizontal=1;startSize=26;horizontalStack=0;resizeParent=1;resizeParentMax=0;resizeLast=0;collapsible=1;marginBottom=0;fontSize=18;strokeWidth=1;" parent="2WWhBWjn9xyKDI1QBTpN-1" vertex="1">
                    <mxGeometry x="758" y="320" width="240" height="138" as="geometry"/>
                </mxCell>
                <mxCell id="E_wjDgqch29v95h_GeEQ-18" value="- adapter: AutoAdapter" style="text;strokeColor=none;fillColor=none;align=left;verticalAlign=top;spacingLeft=4;spacingRight=4;overflow=hidden;rotatable=0;points=[[0,0.5],[1,0.5]];portConstraint=eastwest;fontSize=18;" parent="E_wjDgqch29v95h_GeEQ-17" vertex="1">
                    <mxGeometry y="26" width="240" height="26" as="geometry"/>
                </mxCell>
                <mxCell id="E_wjDgqch29v95h_GeEQ-19" value="- url: str" style="text;strokeColor=none;fillColor=none;align=left;verticalAlign=top;spacingLeft=4;spacingRight=4;overflow=hidden;rotatable=0;points=[[0,0.5],[1,0.5]];portConstraint=eastwest;fontSize=18;" parent="E_wjDgqch29v95h_GeEQ-17" vertex="1">
                    <mxGeometry y="52" width="240" height="26" as="geometry"/>
                </mxCell>
                <mxCell id="E_wjDgqch29v95h_GeEQ-22" value="- response: Response" style="text;strokeColor=none;fillColor=none;align=left;verticalAlign=top;spacingLeft=4;spacingRight=4;overflow=hidden;rotatable=0;points=[[0,0.5],[1,0.5]];portConstraint=eastwest;fontSize=18;" parent="E_wjDgqch29v95h_GeEQ-17" vertex="1">
                    <mxGeometry y="78" width="240" height="26" as="geometry"/>
                </mxCell>
                <mxCell id="E_wjDgqch29v95h_GeEQ-20" value="" style="line;strokeWidth=1;fillColor=none;align=left;verticalAlign=middle;spacingTop=-1;spacingLeft=3;spacingRight=3;rotatable=0;labelPosition=right;points=[];portConstraint=eastwest;fontSize=18;" parent="E_wjDgqch29v95h_GeEQ-17" vertex="1">
                    <mxGeometry y="104" width="240" height="8" as="geometry"/>
                </mxCell>
                <mxCell id="E_wjDgqch29v95h_GeEQ-21" value="- download(): None" style="text;strokeColor=none;fillColor=none;align=left;verticalAlign=top;spacingLeft=4;spacingRight=4;overflow=hidden;rotatable=0;points=[[0,0.5],[1,0.5]];portConstraint=eastwest;fontSize=18;" parent="E_wjDgqch29v95h_GeEQ-17" vertex="1">
                    <mxGeometry y="112" width="240" height="26" as="geometry"/>
                </mxCell>
                <mxCell id="E_wjDgqch29v95h_GeEQ-23" value="ScraperTarget" style="swimlane;fontStyle=1;align=center;verticalAlign=top;childLayout=stackLayout;horizontal=1;startSize=26;horizontalStack=0;resizeParent=1;resizeParentMax=0;resizeLast=0;collapsible=1;marginBottom=0;fontSize=18;strokeWidth=1;" parent="2WWhBWjn9xyKDI1QBTpN-1" vertex="1">
                    <mxGeometry x="698" y="540" width="360" height="112" as="geometry"/>
                </mxCell>
                <mxCell id="E_wjDgqch29v95h_GeEQ-27" value="" style="line;strokeWidth=1;fillColor=none;align=left;verticalAlign=middle;spacingTop=-1;spacingLeft=3;spacingRight=3;rotatable=0;labelPosition=right;points=[];portConstraint=eastwest;fontSize=18;" parent="E_wjDgqch29v95h_GeEQ-23" vertex="1">
                    <mxGeometry y="26" width="360" height="8" as="geometry"/>
                </mxCell>
                <mxCell id="E_wjDgqch29v95h_GeEQ-28" value="+ search_product(str): dict" style="text;strokeColor=none;fillColor=none;align=left;verticalAlign=top;spacingLeft=4;spacingRight=4;overflow=hidden;rotatable=0;points=[[0,0.5],[1,0.5]];portConstraint=eastwest;fontSize=18;" parent="E_wjDgqch29v95h_GeEQ-23" vertex="1">
                    <mxGeometry y="34" width="360" height="26" as="geometry"/>
                </mxCell>
                <mxCell id="E_wjDgqch29v95h_GeEQ-30" value="+ get_product_info_by_sku(str): dict" style="text;strokeColor=none;fillColor=none;align=left;verticalAlign=top;spacingLeft=4;spacingRight=4;overflow=hidden;rotatable=0;points=[[0,0.5],[1,0.5]];portConstraint=eastwest;fontSize=18;" parent="E_wjDgqch29v95h_GeEQ-23" vertex="1">
                    <mxGeometry y="60" width="360" height="26" as="geometry"/>
                </mxCell>
                <mxCell id="E_wjDgqch29v95h_GeEQ-31" value="+ get_qty_by_sku_zipcode(int,str,str): list" style="text;strokeColor=none;fillColor=none;align=left;verticalAlign=top;spacingLeft=4;spacingRight=4;overflow=hidden;rotatable=0;points=[[0,0.5],[1,0.5]];portConstraint=eastwest;fontSize=18;" parent="E_wjDgqch29v95h_GeEQ-23" vertex="1">
                    <mxGeometry y="86" width="360" height="26" as="geometry"/>
                </mxCell>
                <mxCell id="E_wjDgqch29v95h_GeEQ-29" value="Extends" style="endArrow=block;endSize=16;endFill=0;html=1;fontSize=20;strokeWidth=2;entryX=0.5;entryY=1;entryDx=0;entryDy=0;exitX=0.5;exitY=0;exitDx=0;exitDy=0;" parent="2WWhBWjn9xyKDI1QBTpN-1" source="E_wjDgqch29v95h_GeEQ-23" target="E_wjDgqch29v95h_GeEQ-17" edge="1">
                    <mxGeometry width="160" relative="1" as="geometry">
                        <mxPoint x="530" y="830" as="sourcePoint"/>
                        <mxPoint x="690" y="830" as="targetPoint"/>
                    </mxGeometry>
                </mxCell>
                <mxCell id="E_wjDgqch29v95h_GeEQ-32" value="1" style="endArrow=open;html=1;endSize=12;startArrow=diamondThin;startSize=14;startFill=0;align=left;verticalAlign=bottom;fontSize=20;strokeWidth=2;entryX=0.5;entryY=1;entryDx=0;entryDy=0;exitX=0.5;exitY=0;exitDx=0;exitDy=0;" parent="2WWhBWjn9xyKDI1QBTpN-1" source="E_wjDgqch29v95h_GeEQ-17" target="_gKKV9M7iTrNDETlGls4-77" edge="1">
                    <mxGeometry x="-1" y="-12" relative="1" as="geometry">
                        <mxPoint x="830" y="680" as="sourcePoint"/>
                        <mxPoint x="990" y="680" as="targetPoint"/>
                        <mxPoint as="offset"/>
                    </mxGeometry>
                </mxCell>
                <mxCell id="E_wjDgqch29v95h_GeEQ-33" value="Use" style="endArrow=open;endSize=12;dashed=1;html=1;fontSize=20;strokeWidth=2;entryX=0;entryY=0.5;entryDx=0;entryDy=0;exitX=1;exitY=0.5;exitDx=0;exitDy=0;" parent="2WWhBWjn9xyKDI1QBTpN-1" source="E_wjDgqch29v95h_GeEQ-2" target="E_wjDgqch29v95h_GeEQ-17" edge="1">
                    <mxGeometry width="160" relative="1" as="geometry">
                        <mxPoint x="560" y="500" as="sourcePoint"/>
                        <mxPoint x="720" y="500" as="targetPoint"/>
                    </mxGeometry>
                </mxCell>
                <mxCell id="E_wjDgqch29v95h_GeEQ-34" value="Use" style="endArrow=open;endSize=12;dashed=1;html=1;fontSize=20;strokeWidth=2;entryX=1;entryY=0.5;entryDx=0;entryDy=0;exitX=0;exitY=0.5;exitDx=0;exitDy=0;" parent="2WWhBWjn9xyKDI1QBTpN-1" source="E_wjDgqch29v95h_GeEQ-2" target="_gKKV9M7iTrNDETlGls4-87" edge="1">
                    <mxGeometry width="160" relative="1" as="geometry">
                        <mxPoint x="150" y="540" as="sourcePoint"/>
                        <mxPoint x="310" y="540" as="targetPoint"/>
                    </mxGeometry>
                </mxCell>
            </root>
        </mxGraphModel>
    </diagram>
</mxfile>